<?xml version="1.0" encoding="UTF-8" standalone="no"?><!DOCTYPE svg PUBLIC "-//W3C//DTD SVG 1.1//EN" "http://www.w3.org/Graphics/SVG/1.1/DTD/svg11.dtd"><svg width="100%" height="100%" viewBox="0 0 79 79" version="1.1" xmlns="http://www.w3.org/2000/svg" xmlns:xlink="http://www.w3.org/1999/xlink" xml:space="preserve" style="fill-rule:evenodd;clip-rule:evenodd;stroke-linejoin:round;stroke-miterlimit:1.41421;"><path d="M73.813,0l-69.501,0c-2.382,0 -4.312,1.93 -4.312,4.312l0,69.501c0,2.382 1.93,4.312 4.312,4.312l37.417,0l0,-30.254l-10.181,0l0,-11.791l10.181,0l0,-8.695c0,-10.091 6.163,-15.585 15.165,-15.585c4.312,0 8.018,0.321 9.097,0.464l0,10.546l-6.243,0.002c-4.895,0 -5.843,2.327 -5.843,5.74l0,7.528l11.676,0l-1.521,11.791l-10.155,0l0,30.254l19.908,0c2.382,0 4.312,-1.93 4.312,-4.312l0,-69.501c0,-2.382 -1.93,-4.312 -4.312,-4.312" style="fill:#fff;fill-rule:nonzero;"/></svg>