<?xml version="1.0" encoding="UTF-8" standalone="no"?><!DOCTYPE svg PUBLIC "-//W3C//DTD SVG 1.1//EN" "http://www.w3.org/Graphics/SVG/1.1/DTD/svg11.dtd"><svg width="100%" height="100%" viewBox="0 0 41 50" version="1.1" xmlns="http://www.w3.org/2000/svg" xmlns:xlink="http://www.w3.org/1999/xlink" xml:space="preserve" style="fill-rule:evenodd;clip-rule:evenodd;stroke-linejoin:round;stroke-miterlimit:1.41421;"><path d="M32.181,0c-5.905,0 -10.437,3.983 -12.68,9.018l0,-8.743c-3.937,0.915 -8.469,1.327 -13.687,1.327c-1.877,0 -3.846,-0.137 -5.814,-0.32l0,1.968c4.532,0 5.997,2.655 5.997,8.286l0,29.571c0,5.219 -1.648,6.729 -5.997,6.729l0,1.969c2.563,-0.092 8.286,-0.367 13.412,-0.367c5.906,0 11.994,0.275 14.878,0.367l0,-1.969c-5.905,0 -8.789,-1.648 -8.789,-7.69l0,-24.811c0,-5.035 3.525,-11.261 8.514,-12.085c0.458,-0.137 0.916,-0.229 1.328,-0.229c0.457,0 0.869,0.092 1.236,0.229c-2.335,1.557 -4.12,3.8 -4.12,7.233c0,3.662 2.609,6.042 7.004,6.042c4.394,0 7.278,-3.25 7.278,-7.873c0,-4.212 -2.472,-8.652 -8.56,-8.652Z" style="fill:#6EB1B6;fill-rule:nonzero;"/></svg>
