<?xml version="1.0" encoding="UTF-8" standalone="no"?><!DOCTYPE svg PUBLIC "-//W3C//DTD SVG 1.1//EN" "http://www.w3.org/Graphics/SVG/1.1/DTD/svg11.dtd"><svg width="100%" height="100%" viewBox="0 0 1667 1667" version="1.1" xmlns="http://www.w3.org/2000/svg" xmlns:xlink="http://www.w3.org/1999/xlink" xml:space="preserve" style="fill-rule:evenodd;clip-rule:evenodd;stroke-linejoin:round;stroke-miterlimit:1.41421;"><path id="Logo__x2014__FIXED" d="M640,1256.67c392.917,0 607.917,-325.834 607.917,-607.917c0,-9.167 0,-18.333 -0.417,-27.5c41.667,-30 77.917,-67.917 106.667,-110.833c-38.334,17.083 -79.584,28.333 -122.917,33.75c44.167,-26.25 77.917,-68.334 94.167,-118.334c-41.25,24.584 -87.084,42.084 -135.834,51.667c-39.166,-41.667 -94.583,-67.5 -155.833,-67.5c-117.917,0 -213.75,95.833 -213.75,213.75c0,16.667 2.083,32.917 5.417,48.75c-177.5,-8.75 -335,-94.167 -440.417,-223.333c-18.333,31.666 -28.75,68.333 -28.75,107.5c0,74.166 37.917,139.583 95,177.916c-35,-1.25 -67.917,-10.833 -96.667,-26.666c0,0.833 0,1.666 0,2.916c0,103.334 73.75,190 171.25,209.584c-17.916,5 -36.666,7.5 -56.25,7.5c-13.75,0 -27.083,-1.25 -40,-3.75c27.084,85 106.25,146.666 199.584,148.333c-73.334,57.5 -165.417,91.667 -265.417,91.667c-17.083,0 -34.167,-0.834 -50.833,-2.917c94.166,60 206.666,95.417 327.083,95.417" style="fill:#fff;fill-rule:nonzero;"/></svg>