<?xml version="1.0" encoding="UTF-8" standalone="no"?><!DOCTYPE svg PUBLIC "-//W3C//DTD SVG 1.1//EN" "http://www.w3.org/Graphics/SVG/1.1/DTD/svg11.dtd"><svg width="100%" height="100%" viewBox="0 0 84 84" version="1.1" xmlns="http://www.w3.org/2000/svg" xmlns:xlink="http://www.w3.org/1999/xlink" xml:space="preserve" style="fill-rule:evenodd;clip-rule:evenodd;stroke-linejoin:round;stroke-miterlimit:1.41421;"><rect id="Artboard1" x="0" y="0" width="83.333" height="83.333" style="fill:none;"/><path d="M41.667,14.881c-5.692,0 -11.015,0.97 -15.967,2.909c-4.953,1.939 -8.887,4.555 -11.803,7.847c-2.915,3.293 -4.373,6.85 -4.373,10.673c0,3.125 0.997,6.103 2.992,8.935c1.995,2.832 4.806,5.28 8.434,7.345l3.641,2.093l-1.13,4.018c-0.67,2.539 -1.646,4.938 -2.93,7.198c4.241,-1.757 8.078,-4.143 11.51,-7.156l1.799,-1.591l2.386,0.251c1.925,0.223 3.739,0.335 5.441,0.335c5.692,0 11.014,-0.969 15.966,-2.909c4.953,-1.939 8.887,-4.555 11.803,-7.847c2.916,-3.292 4.374,-6.85 4.374,-10.672c0,-3.823 -1.458,-7.38 -4.374,-10.673c-2.916,-3.292 -6.85,-5.908 -11.803,-7.847c-4.952,-1.939 -10.274,-2.909 -15.966,-2.909Zm37.5,21.429c0,4.854 -1.674,9.34 -5.023,13.455c-3.348,4.116 -7.896,7.366 -13.644,9.752c-5.747,2.385 -12.025,3.578 -18.833,3.578c-1.953,0 -3.976,-0.111 -6.069,-0.335c-5.525,4.883 -11.942,8.259 -19.252,10.129c-1.367,0.39 -2.958,0.697 -4.771,0.921l-0.21,0c-0.418,0 -0.795,-0.147 -1.13,-0.44c-0.335,-0.293 -0.558,-0.677 -0.669,-1.151l0,-0.042c-0.084,-0.111 -0.091,-0.279 -0.021,-0.502c0.069,-0.223 0.097,-0.363 0.083,-0.418c-0.014,-0.056 0.049,-0.189 0.189,-0.398l0.251,-0.377l0.293,-0.356l0.335,-0.376c0.195,-0.223 0.627,-0.705 1.297,-1.444c0.67,-0.74 1.151,-1.27 1.444,-1.591c0.293,-0.32 0.725,-0.871 1.297,-1.653c0.572,-0.781 1.026,-1.492 1.361,-2.134c0.335,-0.642 0.711,-1.465 1.13,-2.469c0.418,-1.005 0.781,-2.065 1.088,-3.181c-4.381,-2.484 -7.834,-5.553 -10.359,-9.208c-2.525,-3.655 -3.787,-7.575 -3.787,-11.76c0,-4.855 1.674,-9.341 5.022,-13.456c3.348,-4.116 7.896,-7.366 13.644,-9.752c5.748,-2.385 12.026,-3.578 18.834,-3.578c6.808,0 13.086,1.193 18.833,3.578c5.748,2.386 10.296,5.636 13.644,9.752c3.349,4.115 5.023,8.601 5.023,13.456Z" style="fill-rule:nonzero;"/></svg>