<?xml version="1.0" encoding="UTF-8" standalone="no"?><!DOCTYPE svg PUBLIC "-//W3C//DTD SVG 1.1//EN" "http://www.w3.org/Graphics/SVG/1.1/DTD/svg11.dtd"><svg width="100%" height="100%" viewBox="0 0 79 79" version="1.1" xmlns="http://www.w3.org/2000/svg" xmlns:xlink="http://www.w3.org/1999/xlink" xml:space="preserve" style="fill-rule:evenodd;clip-rule:evenodd;stroke-linejoin:round;stroke-miterlimit:1.41421;"><g><rect id="___x31_0_x2013_20_x25__Black_Tint" x="0" y="0" width="78.125" height="78.125" style="fill:#292f33;fill-opacity:0.2;"/><path id="Logo__x2014__FIXED" d="M30,58.907c18.418,-0.001 28.496,-15.275 28.496,-28.497c0,-0.429 0,-0.859 -0.019,-1.289c1.953,-1.406 3.652,-3.183 5,-5.195c-1.797,0.801 -3.731,1.328 -5.762,1.582c2.07,-1.23 3.652,-3.203 4.414,-5.547c-1.934,1.152 -4.082,1.972 -6.367,2.422c-1.836,-1.953 -4.434,-3.164 -7.305,-3.164c-5.527,0 -10.02,4.492 -10.02,10.019c0,0.781 0.098,1.544 0.255,2.285c-8.321,-0.41 -15.704,-4.414 -20.645,-10.468c-0.86,1.484 -1.348,3.203 -1.348,5.039c0,3.476 1.778,6.543 4.453,8.339c-1.64,-0.058 -3.183,-0.507 -4.531,-1.25c0,0.04 0,0.079 0,0.137c0,4.844 3.457,8.907 8.027,9.824c-0.84,0.235 -1.718,0.352 -2.636,0.352c-0.645,0 -1.27,-0.058 -1.875,-0.176c1.27,3.985 4.98,6.875 9.355,6.953c-3.437,2.695 -7.754,4.297 -12.441,4.297c-0.801,0 -1.602,-0.039 -2.383,-0.137c4.414,2.813 9.688,4.473 15.332,4.473" style="fill:#fff;fill-rule:nonzero;"/></g></svg>