<?xml version="1.0" encoding="UTF-8" standalone="no"?><!DOCTYPE svg PUBLIC "-//W3C//DTD SVG 1.1//EN" "http://www.w3.org/Graphics/SVG/1.1/DTD/svg11.dtd"><svg width="100%" height="100%" viewBox="0 0 94 94" version="1.1" xmlns="http://www.w3.org/2000/svg" xmlns:xlink="http://www.w3.org/1999/xlink" xml:space="preserve" style="fill-rule:evenodd;clip-rule:evenodd;stroke-linejoin:round;stroke-miterlimit:1.41421;"><path d="M88.576,0l-83.402,0c-2.858,0 -5.174,2.316 -5.174,5.174l0,83.402c0,2.858 2.316,5.174 5.174,5.174l44.901,0l0,-36.305l-12.217,0l0,-14.149l12.217,0l0,-10.434c0,-12.109 7.395,-18.702 18.198,-18.702c5.174,0 9.621,0.385 10.916,0.557l0,12.655l-7.491,0.002c-5.874,0 -7.012,2.793 -7.012,6.888l0,9.034l14.011,0l-1.825,14.149l-12.186,0l0,36.305l23.89,0c2.858,0 5.174,-2.316 5.174,-5.174l0,-83.402c0,-2.858 -2.316,-5.174 -5.174,-5.174" style="fill-rule:nonzero;"/></svg>