<?xml version="1.0" encoding="UTF-8" standalone="no"?><!DOCTYPE svg PUBLIC "-//W3C//DTD SVG 1.1//EN" "http://www.w3.org/Graphics/SVG/1.1/DTD/svg11.dtd"><svg width="100%" height="100%" viewBox="0 0 392 392" version="1.1" xmlns="http://www.w3.org/2000/svg" xmlns:xlink="http://www.w3.org/1999/xlink" xml:space="preserve" style="fill-rule:evenodd;clip-rule:evenodd;stroke-linejoin:round;stroke-miterlimit:1.41421;"><path d="M369.067,0l-347.509,0c-11.908,0 -21.558,9.65 -21.558,21.558l0,347.509c0,11.908 9.65,21.558 21.558,21.558l187.088,0l0,-151.271l-50.904,0l0,-58.954l50.904,0l0,-43.475c0,-50.454 30.812,-77.925 75.825,-77.925c21.558,0 40.087,1.604 45.483,2.321l0,52.729l-31.212,0.008c-24.475,0 -29.217,11.638 -29.217,28.7l0,37.642l58.379,0l-7.604,58.954l-50.775,0l0,151.271l99.542,0c11.908,0 21.558,-9.65 21.558,-21.558l0,-347.509c0,-11.908 -9.65,-21.558 -21.558,-21.558" style="fill-opacity:0.2;fill-rule:nonzero;"/></svg>