<?xml version="1.0" encoding="UTF-8" standalone="no"?><!DOCTYPE svg PUBLIC "-//W3C//DTD SVG 1.1//EN" "http://www.w3.org/Graphics/SVG/1.1/DTD/svg11.dtd"><svg width="100%" height="100%" viewBox="0 0 84 84" version="1.1" xmlns="http://www.w3.org/2000/svg" xmlns:xlink="http://www.w3.org/1999/xlink" xml:space="preserve" style="fill-rule:evenodd;clip-rule:evenodd;stroke-linejoin:round;stroke-miterlimit:1.41421;"><rect id="Artboard1" x="0" y="0" width="83.333" height="83.333" style="fill:none;"/><path d="M73.513,14.923c-7.538,-7.539 -19.759,-7.539 -27.296,0l-4.55,4.549l-4.55,-4.549c-7.538,-7.538 -19.759,-7.538 -27.297,0c-7.538,7.539 -7.538,19.759 0,27.297l4.55,4.547l27.297,27.297l27.297,-27.297l4.548,-4.547c7.539,-7.538 7.539,-19.759 0.001,-27.297Zm-13.649,31.846l-18.197,18.198l-18.197,-18.198l-9.098,-9.098c-5.026,-5.025 -5.026,-13.173 0,-18.2c5.025,-5.024 13.172,-5.024 18.197,0l9.098,9.1l9.099,-9.099c5.025,-5.025 13.173,-5.025 18.198,0c5.024,5.027 5.024,13.173 0,18.199l-9.1,9.098Z" style="fill-rule:nonzero;"/></svg>