<?xml version="1.0" encoding="UTF-8" standalone="no"?><!DOCTYPE svg PUBLIC "-//W3C//DTD SVG 1.1//EN" "http://www.w3.org/Graphics/SVG/1.1/DTD/svg11.dtd"><svg width="100%" height="100%" viewBox="0 0 84 84" version="1.1" xmlns="http://www.w3.org/2000/svg" xmlns:xlink="http://www.w3.org/1999/xlink" xml:space="preserve" style="fill-rule:evenodd;clip-rule:evenodd;stroke-linejoin:round;stroke-miterlimit:1.41421;"><rect id="Artboard2" x="0" y="0" width="83.333" height="83.333" style="fill:none;"/><clipPath id="_clip1"><rect x="0" y="0" width="83.333" height="83.333"/></clipPath><g clip-path="url(#_clip1)"><rect id="Artboard1" x="-142.187" y="-116.667" width="347.221" height="347.221" style="fill:none;"/><path d="M70.573,19.791l-10.157,0l0,-9.375c0,-3.452 -2.796,-6.249 -6.25,-6.249l-25,0c-3.453,0 -6.25,2.797 -6.25,6.249l0,9.375l-10.156,0c-2.156,0 -3.906,1.751 -3.906,3.907c0,2.156 1.75,3.906 3.906,3.906l2.344,0l0,45.313c0,3.453 2.797,6.25 6.25,6.25l40.625,0c3.453,0 6.25,-2.797 6.25,-6.25l0,-45.313l2.344,0c2.156,0 3.906,-1.75 3.906,-3.906c0,-2.157 -1.75,-3.907 -3.906,-3.907Zm-17.969,0l-21.875,0l0,-4.374c0,-1.906 1.532,-3.438 3.438,-3.438l14.999,0c1.906,0 3.438,1.532 3.438,3.438l0,4.374l0,0Zm-21.875,10.938l0,37.5c0,1.718 -1.407,3.125 -3.125,3.125c-1.718,0 -3.125,-1.407 -3.125,-3.125l0,-37.5c0,-1.718 1.407,-3.125 3.125,-3.125c1.718,0 3.125,1.407 3.125,3.125Zm14.063,0l0,37.5c0,1.718 -1.407,3.125 -3.126,3.125c-1.718,0 -3.124,-1.407 -3.124,-3.125l0,-37.5c0,-1.718 1.407,-3.125 3.124,-3.125c1.719,0 3.126,1.407 3.126,3.125Zm14.062,0l0,37.5c0,1.718 -1.407,3.125 -3.125,3.125c-1.718,0 -3.125,-1.407 -3.125,-3.125l0,-37.5c0,-1.718 1.407,-3.125 3.125,-3.125c1.718,0 3.125,1.407 3.125,3.125Z" style="fill:#010101;"/></g></svg>