<?xml version="1.0" encoding="UTF-8" standalone="no"?><!DOCTYPE svg PUBLIC "-//W3C//DTD SVG 1.1//EN" "http://www.w3.org/Graphics/SVG/1.1/DTD/svg11.dtd"><svg width="100%" height="100%" viewBox="0 0 50 50" version="1.1" xmlns="http://www.w3.org/2000/svg" xmlns:xlink="http://www.w3.org/1999/xlink" xml:space="preserve" style="fill-rule:evenodd;clip-rule:evenodd;stroke-linejoin:round;stroke-miterlimit:1.41421;"><path d="M20.292,37.056c6.673,2.597 14.17,-0.7 16.767,-7.375c2.588,-6.644 -0.708,-14.142 -7.384,-16.74c-6.644,-2.587 -14.142,0.71 -16.73,7.357c-2.597,6.673 0.699,14.171 7.347,16.758Zm16.816,-29.732c1.408,0.879 3.705,2.898 5.161,5.049l4.569,-0.882c1.3,2.105 2.294,4.388 2.947,6.774l-3.714,2.752l-0.027,0.073c0.372,1.606 0.565,4.639 0.071,7.197l3.879,2.637c-0.271,1.131 -0.617,2.255 -1.05,3.368c-0.475,1.22 -1.033,2.38 -1.662,3.481l-4.589,-0.695l-0.051,0.022c-0.895,1.445 -2.899,3.705 -5.048,5.159l0.034,0.014l-0.034,-0.014l0.887,4.602c-2.103,1.298 -4.382,2.284 -6.766,2.934l-2.767,-3.734l-0.039,-0.014c-1.639,0.36 -4.673,0.556 -7.195,0.073l-2.638,3.88c-1.147,-0.273 -2.292,-0.623 -3.423,-1.065c-1.204,-0.468 -2.351,-1.02 -3.441,-1.643l0.676,-4.607l-0.022,-0.05c-1.409,-0.88 -3.708,-2.9 -5.124,-5.036l-0.014,0.035l0.014,-0.035l-4.612,0.892c-1.295,-2.103 -2.281,-4.384 -2.928,-6.768l3.737,-2.768l0.014,-0.038c-0.41,-1.617 -0.592,-4.688 -0.11,-7.209l-3.843,-2.621c0.273,-1.148 0.627,-2.291 1.066,-3.423c0.471,-1.206 1.024,-2.358 1.647,-3.448l4.566,0.663l0.038,0.014c0.895,-1.445 2.899,-3.706 5.049,-5.16l-0.884,-4.579c2.105,-1.298 4.389,-2.29 6.775,-2.94l2.753,3.718l0.037,0.012c1.656,-0.395 4.689,-0.59 7.248,-0.093l2.595,-3.851c1.137,0.272 2.27,0.621 3.392,1.058c1.221,0.476 2.385,1.034 3.489,1.665l-0.684,4.549l0.021,0.052Z" style="fill:#6eb1b6;"/></svg>